Coordinates
version=1
nRows=6
nColumns=36
inDegrees=yes

Units are S.I. units (second, meters, Newtons, ...)
If the header above contains a line with 'inDegrees', this indicates whether rotational values are in degrees (yes) or radians (no).

endheader
time	pelvis_tilt	pelvis_list	pelvis_rotation	pelvis_tx	pelvis_ty	pelvis_tz	hip_flexion_r	hip_adduction_r	hip_rotation_r	knee_angle_r	knee_angle_r_beta	ankle_angle_r	subtalar_angle_r	mtp_angle_r	hip_flexion_l	hip_adduction_l	hip_rotation_l	knee_angle_l	knee_angle_l_beta	ankle_angle_l	subtalar_angle_l	mtp_angle_l	lumbar_extension	lumbar_bending	lumbar_rotation	arm_flex_r	arm_add_r	arm_rot_r	elbow_flex_r	pro_sup_r	arm_flex_l	arm_add_l	arm_rot_l	elbow_flex_l	pro_sup_l
      0.00000000	     -5.49444056	     -1.27632451	      9.98727567	     -0.96844268	      1.25087126	     -0.05095446	      6.55867124	     -2.99871622	     -1.84384373	      2.61921853	      0.04571399	      5.36939319	     -0.35871602	     -5.91048175	      5.81034762	     -2.89042283	      3.51943798	      1.10483461	      0.01928300	     14.64871407	      1.73769639	     -5.91048175	     15.31469066	     -0.40928460	     -2.12876025	     -5.80015693	    -12.86622961	      7.43938815	     15.64911279	     88.97049167	    -12.32048342	    -11.59547759	      0.05017851	     16.80942257	     88.20942583
      0.01666670	     -6.47085683	     -1.63011293	      8.83058636	     -0.96766085	      1.24806390	     -0.05204011	      8.52323198	     -2.79594015	     -0.82445386	      3.76247053	      0.06566750	      6.19323748	     -0.01511955	     -6.27402962	      7.18637995	     -3.41546591	      1.63227937	      1.87027179	      0.03264240	     14.49997361	      2.70866312	     -6.27402962	     18.37401554	      0.01227992	     -0.96240862	     -5.36512819	    -13.55625692	      9.95560865	     11.18966374	     92.48578089	    -11.98342818	    -11.55040799	      5.48518871	     12.93765173	     90.47940382
      0.03333330	     -7.83464579	     -2.08426917	      8.38733614	     -0.96603092	      1.24086108	     -0.05308638	     10.31394337	     -2.75025186	     -0.68529424	      4.31352814	      0.07528527	      5.69023807	      0.61765449	     -6.40371623	      8.89251987	     -3.87086444	      0.05308460	      2.01835233	      0.03522689	     14.27269054	      3.50056549	     -6.40371623	     21.04683845	      0.45639781	     -0.95876060	     -5.95336884	    -14.01469604	      9.40926474	      9.87996963	     97.13264216	    -11.56910705	    -11.72161596	      8.61544643	     10.99048447	     93.91050928
      0.05000000	     -8.25386886	     -2.24594363	      8.63586368	     -0.96569027	      1.23987455	     -0.05377981	     11.05055495	     -2.85091610	     -1.36002642	      4.71319944	      0.08226085	      6.31206833	      2.08067054	     -6.96655616	      9.68382072	     -4.00310031	     -0.50854917	      2.67132808	      0.04662347	     14.57690251	      4.31201525	     -6.96655616	     22.27185196	      0.35099759	     -1.63501288	     -6.09632698	    -14.03876354	      7.24325012	      9.11737687	    101.11980526	    -11.56042854	    -11.80264582	      8.47471467	     10.36918157	     96.21805151
      0.06666670	     -8.63301236	     -2.21349057	      8.47605654	     -0.96447521	      1.23988581	     -0.05427063	     11.49800491	     -2.91842414	     -1.23620019	      4.90625395	      0.08563029	      6.65141134	      2.44831740	     -7.00228396	     10.28645186	     -3.93964171	     -0.52581927	      3.08425514	      0.05383041	     14.93361284	      4.29812607	     -7.00228396	     22.97723643	      0.27059120	     -1.61879941	     -6.89272845	    -14.29163126	      7.35799801	     10.84368727	     99.72125610	    -12.36075916	    -12.06846412	      8.51263751	     11.89553111	     95.00416041
      0.08333330	     -9.34414684	     -2.20831926	      8.31758663	     -0.95505351	      1.24357603	     -0.05878252	     12.23093597	     -3.01761341	     -1.35446953	      5.23966925	      0.09144948	      7.21397392	      2.93439331	     -7.01383302	     11.08525907	     -3.88615517	     -1.52028186	      3.46982717	      0.06055991	     15.49447702	      6.09993138	     -7.01383302	     24.52670785	      0.22269320	     -1.62204619	     -6.64301147	    -14.29912009	      8.19332467	      9.49390221	    100.00781978	    -12.60755375	    -11.96619824	      9.27638301	     10.66526900	     95.41885406
